<svg xmlns="http://www.w3.org/2000/svg" viewBox="0 0 240 336" width="240" height="336"
     shape-rendering="crispEdges" role="img"
     aria-label="FILMERAMA — Streaming. No ar em filmerama.com, distribuindo o que o estúdio produz.">
  <title>FILMERAMA</title>
  <defs>
    <clipPath id="corte"><path d="M8,0 H232 V4 H236 V8 H240 V328 H236 V332 H232 V336 H8 V332 H4 V328 H0 V8 H4 V4 H8 Z"/></clipPath>
    <pattern id="tramado" width="4" height="4" patternUnits="userSpaceOnUse">
      <rect width="2" height="2" fill="#a674e8" fill-opacity="0.07"/>
      <rect x="2" y="2" width="2" height="2" fill="#a674e8" fill-opacity="0.07"/>
    </pattern>
    <style>
      .m { font-family: ui-monospace, "DejaVu Sans Mono", Consolas, monospace; }
    </style>
  </defs>

  <g clip-path="url(#corte)">
    <rect width="240" height="336" fill="#140d1f"/>
    <path d="M8,0 H232 V4 H236 V8 H240 V328 H236 V332 H232 V336 H8 V332 H4 V328 H0 V8 H4 V4 H8 Z" fill="none" stroke="#a674e8" stroke-width="8"/>
    <rect x="8" y="8" width="224" height="320" fill="none"
          stroke="#40276b" stroke-width="4"/>

    <!-- barra de cabeçalho -->
    <rect x="8" y="8" width="224" height="28" fill="#40276b"/>
    <rect x="16" y="16" width="6" height="2" fill="#a674e8"/><rect x="14" y="18" width="2" height="2" fill="#a674e8"/><rect x="22" y="18" width="2" height="2" fill="#a674e8"/><rect x="22" y="20" width="2" height="2" fill="#a674e8"/><rect x="20" y="22" width="2" height="2" fill="#a674e8"/><rect x="18" y="24" width="2" height="2" fill="#a674e8"/><rect x="16" y="26" width="2" height="2" fill="#a674e8"/><rect x="14" y="28" width="10" height="2" fill="#a674e8"/><rect x="28" y="16" width="6" height="2" fill="#a674e8"/><rect x="26" y="18" width="2" height="2" fill="#a674e8"/><rect x="34" y="18" width="2" height="2" fill="#a674e8"/><rect x="26" y="20" width="2" height="2" fill="#a674e8"/><rect x="32" y="20" width="4" height="2" fill="#a674e8"/><rect x="26" y="22" width="2" height="2" fill="#a674e8"/><rect x="30" y="22" width="2" height="2" fill="#a674e8"/><rect x="34" y="22" width="2" height="2" fill="#a674e8"/><rect x="26" y="24" width="4" height="2" fill="#a674e8"/><rect x="34" y="24" width="2" height="2" fill="#a674e8"/><rect x="26" y="26" width="2" height="2" fill="#a674e8"/><rect x="34" y="26" width="2" height="2" fill="#a674e8"/><rect x="28" y="28" width="6" height="2" fill="#a674e8"/><rect x="40" y="16" width="6" height="2" fill="#a674e8"/><rect x="38" y="18" width="2" height="2" fill="#a674e8"/><rect x="46" y="18" width="2" height="2" fill="#a674e8"/><rect x="46" y="20" width="2" height="2" fill="#a674e8"/><rect x="44" y="22" width="2" height="2" fill="#a674e8"/><rect x="42" y="24" width="2" height="2" fill="#a674e8"/><rect x="40" y="26" width="2" height="2" fill="#a674e8"/><rect x="38" y="28" width="10" height="2" fill="#a674e8"/><rect x="54" y="16" width="4" height="2" fill="#a674e8"/><rect x="52" y="18" width="2" height="2" fill="#a674e8"/><rect x="50" y="20" width="2" height="2" fill="#a674e8"/><rect x="50" y="22" width="8" height="2" fill="#a674e8"/><rect x="50" y="24" width="2" height="2" fill="#a674e8"/><rect x="58" y="24" width="2" height="2" fill="#a674e8"/><rect x="50" y="26" width="2" height="2" fill="#a674e8"/><rect x="58" y="26" width="2" height="2" fill="#a674e8"/><rect x="52" y="28" width="6" height="2" fill="#a674e8"/>
    <rect x="170" y="16" width="2" height="2" fill="#f0ece4"/><rect x="178" y="16" width="2" height="2" fill="#f0ece4"/><rect x="170" y="18" width="4" height="2" fill="#f0ece4"/><rect x="178" y="18" width="2" height="2" fill="#f0ece4"/><rect x="170" y="20" width="2" height="2" fill="#f0ece4"/><rect x="174" y="20" width="2" height="2" fill="#f0ece4"/><rect x="178" y="20" width="2" height="2" fill="#f0ece4"/><rect x="170" y="22" width="2" height="2" fill="#f0ece4"/><rect x="176" y="22" width="4" height="2" fill="#f0ece4"/><rect x="170" y="24" width="2" height="2" fill="#f0ece4"/><rect x="178" y="24" width="2" height="2" fill="#f0ece4"/><rect x="170" y="26" width="2" height="2" fill="#f0ece4"/><rect x="178" y="26" width="2" height="2" fill="#f0ece4"/><rect x="170" y="28" width="2" height="2" fill="#f0ece4"/><rect x="178" y="28" width="2" height="2" fill="#f0ece4"/><rect x="184" y="16" width="6" height="2" fill="#f0ece4"/><rect x="182" y="18" width="2" height="2" fill="#f0ece4"/><rect x="190" y="18" width="2" height="2" fill="#f0ece4"/><rect x="182" y="20" width="2" height="2" fill="#f0ece4"/><rect x="190" y="20" width="2" height="2" fill="#f0ece4"/><rect x="182" y="22" width="2" height="2" fill="#f0ece4"/><rect x="190" y="22" width="2" height="2" fill="#f0ece4"/><rect x="182" y="24" width="2" height="2" fill="#f0ece4"/><rect x="190" y="24" width="2" height="2" fill="#f0ece4"/><rect x="182" y="26" width="2" height="2" fill="#f0ece4"/><rect x="190" y="26" width="2" height="2" fill="#f0ece4"/><rect x="184" y="28" width="6" height="2" fill="#f0ece4"/><rect x="208" y="16" width="6" height="2" fill="#f0ece4"/><rect x="206" y="18" width="2" height="2" fill="#f0ece4"/><rect x="214" y="18" width="2" height="2" fill="#f0ece4"/><rect x="206" y="20" width="2" height="2" fill="#f0ece4"/><rect x="214" y="20" width="2" height="2" fill="#f0ece4"/><rect x="206" y="22" width="10" height="2" fill="#f0ece4"/><rect x="206" y="24" width="2" height="2" fill="#f0ece4"/><rect x="214" y="24" width="2" height="2" fill="#f0ece4"/><rect x="206" y="26" width="2" height="2" fill="#f0ece4"/><rect x="214" y="26" width="2" height="2" fill="#f0ece4"/><rect x="206" y="28" width="2" height="2" fill="#f0ece4"/><rect x="214" y="28" width="2" height="2" fill="#f0ece4"/><rect x="218" y="16" width="8" height="2" fill="#f0ece4"/><rect x="218" y="18" width="2" height="2" fill="#f0ece4"/><rect x="226" y="18" width="2" height="2" fill="#f0ece4"/><rect x="218" y="20" width="2" height="2" fill="#f0ece4"/><rect x="226" y="20" width="2" height="2" fill="#f0ece4"/><rect x="218" y="22" width="8" height="2" fill="#f0ece4"/><rect x="218" y="24" width="2" height="2" fill="#f0ece4"/><rect x="222" y="24" width="2" height="2" fill="#f0ece4"/><rect x="218" y="26" width="2" height="2" fill="#f0ece4"/><rect x="224" y="26" width="2" height="2" fill="#f0ece4"/><rect x="218" y="28" width="2" height="2" fill="#f0ece4"/><rect x="226" y="28" width="2" height="2" fill="#f0ece4"/>

    <g><rect x="40" y="68" width="15" height="3" fill="#f0ece4"/><rect x="40" y="71" width="3" height="3" fill="#f0ece4"/><rect x="40" y="74" width="3" height="3" fill="#f0ece4"/><rect x="40" y="77" width="12" height="3" fill="#f0ece4"/><rect x="40" y="80" width="3" height="3" fill="#f0ece4"/><rect x="40" y="83" width="3" height="3" fill="#f0ece4"/><rect x="40" y="86" width="3" height="3" fill="#f0ece4"/><rect x="58" y="68" width="15" height="3" fill="#f0ece4"/><rect x="64" y="71" width="3" height="3" fill="#f0ece4"/><rect x="64" y="74" width="3" height="3" fill="#f0ece4"/><rect x="64" y="77" width="3" height="3" fill="#f0ece4"/><rect x="64" y="80" width="3" height="3" fill="#f0ece4"/><rect x="64" y="83" width="3" height="3" fill="#f0ece4"/><rect x="58" y="86" width="15" height="3" fill="#f0ece4"/><rect x="76" y="68" width="3" height="3" fill="#f0ece4"/><rect x="76" y="71" width="3" height="3" fill="#f0ece4"/><rect x="76" y="74" width="3" height="3" fill="#f0ece4"/><rect x="76" y="77" width="3" height="3" fill="#f0ece4"/><rect x="76" y="80" width="3" height="3" fill="#f0ece4"/><rect x="76" y="83" width="3" height="3" fill="#f0ece4"/><rect x="76" y="86" width="15" height="3" fill="#f0ece4"/><rect x="94" y="68" width="3" height="3" fill="#f0ece4"/><rect x="106" y="68" width="3" height="3" fill="#f0ece4"/><rect x="94" y="71" width="6" height="3" fill="#f0ece4"/><rect x="103" y="71" width="6" height="3" fill="#f0ece4"/><rect x="94" y="74" width="3" height="3" fill="#f0ece4"/><rect x="100" y="74" width="3" height="3" fill="#f0ece4"/><rect x="106" y="74" width="3" height="3" fill="#f0ece4"/><rect x="94" y="77" width="3" height="3" fill="#f0ece4"/><rect x="100" y="77" width="3" height="3" fill="#f0ece4"/><rect x="106" y="77" width="3" height="3" fill="#f0ece4"/><rect x="94" y="80" width="3" height="3" fill="#f0ece4"/><rect x="106" y="80" width="3" height="3" fill="#f0ece4"/><rect x="94" y="83" width="3" height="3" fill="#f0ece4"/><rect x="106" y="83" width="3" height="3" fill="#f0ece4"/><rect x="94" y="86" width="3" height="3" fill="#f0ece4"/><rect x="106" y="86" width="3" height="3" fill="#f0ece4"/><rect x="112" y="68" width="15" height="3" fill="#f0ece4"/><rect x="112" y="71" width="3" height="3" fill="#f0ece4"/><rect x="112" y="74" width="3" height="3" fill="#f0ece4"/><rect x="112" y="77" width="12" height="3" fill="#f0ece4"/><rect x="112" y="80" width="3" height="3" fill="#f0ece4"/><rect x="112" y="83" width="3" height="3" fill="#f0ece4"/><rect x="112" y="86" width="15" height="3" fill="#f0ece4"/><rect x="130" y="68" width="12" height="3" fill="#f0ece4"/><rect x="130" y="71" width="3" height="3" fill="#f0ece4"/><rect x="142" y="71" width="3" height="3" fill="#f0ece4"/><rect x="130" y="74" width="3" height="3" fill="#f0ece4"/><rect x="142" y="74" width="3" height="3" fill="#f0ece4"/><rect x="130" y="77" width="12" height="3" fill="#f0ece4"/><rect x="130" y="80" width="3" height="3" fill="#f0ece4"/><rect x="136" y="80" width="3" height="3" fill="#f0ece4"/><rect x="130" y="83" width="3" height="3" fill="#f0ece4"/><rect x="139" y="83" width="3" height="3" fill="#f0ece4"/><rect x="130" y="86" width="3" height="3" fill="#f0ece4"/><rect x="142" y="86" width="3" height="3" fill="#f0ece4"/><rect x="151" y="68" width="9" height="3" fill="#f0ece4"/><rect x="148" y="71" width="3" height="3" fill="#f0ece4"/><rect x="160" y="71" width="3" height="3" fill="#f0ece4"/><rect x="148" y="74" width="3" height="3" fill="#f0ece4"/><rect x="160" y="74" width="3" height="3" fill="#f0ece4"/><rect x="148" y="77" width="15" height="3" fill="#f0ece4"/><rect x="148" y="80" width="3" height="3" fill="#f0ece4"/><rect x="160" y="80" width="3" height="3" fill="#f0ece4"/><rect x="148" y="83" width="3" height="3" fill="#f0ece4"/><rect x="160" y="83" width="3" height="3" fill="#f0ece4"/><rect x="148" y="86" width="3" height="3" fill="#f0ece4"/><rect x="160" y="86" width="3" height="3" fill="#f0ece4"/><rect x="166" y="68" width="3" height="3" fill="#f0ece4"/><rect x="178" y="68" width="3" height="3" fill="#f0ece4"/><rect x="166" y="71" width="6" height="3" fill="#f0ece4"/><rect x="175" y="71" width="6" height="3" fill="#f0ece4"/><rect x="166" y="74" width="3" height="3" fill="#f0ece4"/><rect x="172" y="74" width="3" height="3" fill="#f0ece4"/><rect x="178" y="74" width="3" height="3" fill="#f0ece4"/><rect x="166" y="77" width="3" height="3" fill="#f0ece4"/><rect x="172" y="77" width="3" height="3" fill="#f0ece4"/><rect x="178" y="77" width="3" height="3" fill="#f0ece4"/><rect x="166" y="80" width="3" height="3" fill="#f0ece4"/><rect x="178" y="80" width="3" height="3" fill="#f0ece4"/><rect x="166" y="83" width="3" height="3" fill="#f0ece4"/><rect x="178" y="83" width="3" height="3" fill="#f0ece4"/><rect x="166" y="86" width="3" height="3" fill="#f0ece4"/><rect x="178" y="86" width="3" height="3" fill="#f0ece4"/><rect x="187" y="68" width="9" height="3" fill="#f0ece4"/><rect x="184" y="71" width="3" height="3" fill="#f0ece4"/><rect x="196" y="71" width="3" height="3" fill="#f0ece4"/><rect x="184" y="74" width="3" height="3" fill="#f0ece4"/><rect x="196" y="74" width="3" height="3" fill="#f0ece4"/><rect x="184" y="77" width="15" height="3" fill="#f0ece4"/><rect x="184" y="80" width="3" height="3" fill="#f0ece4"/><rect x="196" y="80" width="3" height="3" fill="#f0ece4"/><rect x="184" y="83" width="3" height="3" fill="#f0ece4"/><rect x="196" y="83" width="3" height="3" fill="#f0ece4"/><rect x="184" y="86" width="3" height="3" fill="#f0ece4"/><rect x="196" y="86" width="3" height="3" fill="#f0ece4"/></g>

    <!-- quadro de arte, tramado por dentro -->
    <rect x="20" y="126" width="200" height="72" fill="#40276b" fill-opacity="0.55"/>
    <rect x="20" y="126" width="200" height="72" fill="url(#tramado)"/>
    <rect x="20" y="126" width="200" height="72" fill="none" stroke="#a674e8" stroke-width="2.0"/>
    <rect x="100" y="132" width="10" height="5" fill="#a674e8"/><rect x="100" y="137" width="20" height="5" fill="#a674e8"/><rect x="100" y="142" width="30" height="5" fill="#a674e8"/><rect x="100" y="147" width="40" height="5" fill="#a674e8"/><rect x="100" y="152" width="50" height="5" fill="#a674e8"/><rect x="100" y="157" width="50" height="5" fill="#a674e8"/><rect x="100" y="162" width="50" height="5" fill="#a674e8"/><rect x="100" y="167" width="40" height="5" fill="#a674e8"/><rect x="100" y="172" width="30" height="5" fill="#a674e8"/><rect x="100" y="177" width="20" height="5" fill="#a674e8"/><rect x="100" y="182" width="10" height="5" fill="#a674e8"/>

    <rect x="22" y="210" width="8" height="2" fill="#a674e8"/><rect x="20" y="212" width="2" height="2" fill="#a674e8"/><rect x="20" y="214" width="2" height="2" fill="#a674e8"/><rect x="22" y="216" width="6" height="2" fill="#a674e8"/><rect x="28" y="218" width="2" height="2" fill="#a674e8"/><rect x="28" y="220" width="2" height="2" fill="#a674e8"/><rect x="20" y="222" width="8" height="2" fill="#a674e8"/><rect x="32" y="210" width="10" height="2" fill="#a674e8"/><rect x="36" y="212" width="2" height="2" fill="#a674e8"/><rect x="36" y="214" width="2" height="2" fill="#a674e8"/><rect x="36" y="216" width="2" height="2" fill="#a674e8"/><rect x="36" y="218" width="2" height="2" fill="#a674e8"/><rect x="36" y="220" width="2" height="2" fill="#a674e8"/><rect x="36" y="222" width="2" height="2" fill="#a674e8"/><rect x="44" y="210" width="8" height="2" fill="#a674e8"/><rect x="44" y="212" width="2" height="2" fill="#a674e8"/><rect x="52" y="212" width="2" height="2" fill="#a674e8"/><rect x="44" y="214" width="2" height="2" fill="#a674e8"/><rect x="52" y="214" width="2" height="2" fill="#a674e8"/><rect x="44" y="216" width="8" height="2" fill="#a674e8"/><rect x="44" y="218" width="2" height="2" fill="#a674e8"/><rect x="48" y="218" width="2" height="2" fill="#a674e8"/><rect x="44" y="220" width="2" height="2" fill="#a674e8"/><rect x="50" y="220" width="2" height="2" fill="#a674e8"/><rect x="44" y="222" width="2" height="2" fill="#a674e8"/><rect x="52" y="222" width="2" height="2" fill="#a674e8"/><rect x="56" y="210" width="10" height="2" fill="#a674e8"/><rect x="56" y="212" width="2" height="2" fill="#a674e8"/><rect x="56" y="214" width="2" height="2" fill="#a674e8"/><rect x="56" y="216" width="8" height="2" fill="#a674e8"/><rect x="56" y="218" width="2" height="2" fill="#a674e8"/><rect x="56" y="220" width="2" height="2" fill="#a674e8"/><rect x="56" y="222" width="10" height="2" fill="#a674e8"/><rect x="70" y="210" width="6" height="2" fill="#a674e8"/><rect x="68" y="212" width="2" height="2" fill="#a674e8"/><rect x="76" y="212" width="2" height="2" fill="#a674e8"/><rect x="68" y="214" width="2" height="2" fill="#a674e8"/><rect x="76" y="214" width="2" height="2" fill="#a674e8"/><rect x="68" y="216" width="10" height="2" fill="#a674e8"/><rect x="68" y="218" width="2" height="2" fill="#a674e8"/><rect x="76" y="218" width="2" height="2" fill="#a674e8"/><rect x="68" y="220" width="2" height="2" fill="#a674e8"/><rect x="76" y="220" width="2" height="2" fill="#a674e8"/><rect x="68" y="222" width="2" height="2" fill="#a674e8"/><rect x="76" y="222" width="2" height="2" fill="#a674e8"/><rect x="80" y="210" width="2" height="2" fill="#a674e8"/><rect x="88" y="210" width="2" height="2" fill="#a674e8"/><rect x="80" y="212" width="4" height="2" fill="#a674e8"/><rect x="86" y="212" width="4" height="2" fill="#a674e8"/><rect x="80" y="214" width="2" height="2" fill="#a674e8"/><rect x="84" y="214" width="2" height="2" fill="#a674e8"/><rect x="88" y="214" width="2" height="2" fill="#a674e8"/><rect x="80" y="216" width="2" height="2" fill="#a674e8"/><rect x="84" y="216" width="2" height="2" fill="#a674e8"/><rect x="88" y="216" width="2" height="2" fill="#a674e8"/><rect x="80" y="218" width="2" height="2" fill="#a674e8"/><rect x="88" y="218" width="2" height="2" fill="#a674e8"/><rect x="80" y="220" width="2" height="2" fill="#a674e8"/><rect x="88" y="220" width="2" height="2" fill="#a674e8"/><rect x="80" y="222" width="2" height="2" fill="#a674e8"/><rect x="88" y="222" width="2" height="2" fill="#a674e8"/><rect x="92" y="210" width="10" height="2" fill="#a674e8"/><rect x="96" y="212" width="2" height="2" fill="#a674e8"/><rect x="96" y="214" width="2" height="2" fill="#a674e8"/><rect x="96" y="216" width="2" height="2" fill="#a674e8"/><rect x="96" y="218" width="2" height="2" fill="#a674e8"/><rect x="96" y="220" width="2" height="2" fill="#a674e8"/><rect x="92" y="222" width="10" height="2" fill="#a674e8"/><rect x="104" y="210" width="2" height="2" fill="#a674e8"/><rect x="112" y="210" width="2" height="2" fill="#a674e8"/><rect x="104" y="212" width="4" height="2" fill="#a674e8"/><rect x="112" y="212" width="2" height="2" fill="#a674e8"/><rect x="104" y="214" width="2" height="2" fill="#a674e8"/><rect x="108" y="214" width="2" height="2" fill="#a674e8"/><rect x="112" y="214" width="2" height="2" fill="#a674e8"/><rect x="104" y="216" width="2" height="2" fill="#a674e8"/><rect x="110" y="216" width="4" height="2" fill="#a674e8"/><rect x="104" y="218" width="2" height="2" fill="#a674e8"/><rect x="112" y="218" width="2" height="2" fill="#a674e8"/><rect x="104" y="220" width="2" height="2" fill="#a674e8"/><rect x="112" y="220" width="2" height="2" fill="#a674e8"/><rect x="104" y="222" width="2" height="2" fill="#a674e8"/><rect x="112" y="222" width="2" height="2" fill="#a674e8"/><rect x="118" y="210" width="6" height="2" fill="#a674e8"/><rect x="116" y="212" width="2" height="2" fill="#a674e8"/><rect x="124" y="212" width="2" height="2" fill="#a674e8"/><rect x="116" y="214" width="2" height="2" fill="#a674e8"/><rect x="116" y="216" width="2" height="2" fill="#a674e8"/><rect x="120" y="216" width="6" height="2" fill="#a674e8"/><rect x="116" y="218" width="2" height="2" fill="#a674e8"/><rect x="124" y="218" width="2" height="2" fill="#a674e8"/><rect x="116" y="220" width="2" height="2" fill="#a674e8"/><rect x="124" y="220" width="2" height="2" fill="#a674e8"/><rect x="118" y="222" width="8" height="2" fill="#a674e8"/>

    <g><text x="20" y="248" fill="#8d867c" font-size="10.5" class="m">No ar em filmerama.com,</text><text x="20" y="263" fill="#8d867c" font-size="10.5" class="m">distribuindo o que o estúdio</text><text x="20" y="278" fill="#8d867c" font-size="10.5" class="m">produz.</text></g>

    <rect x="20" y="288" width="200" height="2.0" fill="#40276b"/>
    <rect x="20" y="298" width="8" height="2" fill="#8d867c"/><rect x="20" y="300" width="2" height="2" fill="#8d867c"/><rect x="28" y="300" width="2" height="2" fill="#8d867c"/><rect x="20" y="302" width="2" height="2" fill="#8d867c"/><rect x="28" y="302" width="2" height="2" fill="#8d867c"/><rect x="20" y="304" width="8" height="2" fill="#8d867c"/><rect x="20" y="306" width="2" height="2" fill="#8d867c"/><rect x="24" y="306" width="2" height="2" fill="#8d867c"/><rect x="20" y="308" width="2" height="2" fill="#8d867c"/><rect x="26" y="308" width="2" height="2" fill="#8d867c"/><rect x="20" y="310" width="2" height="2" fill="#8d867c"/><rect x="28" y="310" width="2" height="2" fill="#8d867c"/><rect x="32" y="298" width="10" height="2" fill="#8d867c"/><rect x="32" y="300" width="2" height="2" fill="#8d867c"/><rect x="32" y="302" width="2" height="2" fill="#8d867c"/><rect x="32" y="304" width="8" height="2" fill="#8d867c"/><rect x="32" y="306" width="2" height="2" fill="#8d867c"/><rect x="32" y="308" width="2" height="2" fill="#8d867c"/><rect x="32" y="310" width="10" height="2" fill="#8d867c"/><rect x="46" y="298" width="6" height="2" fill="#8d867c"/><rect x="44" y="300" width="2" height="2" fill="#8d867c"/><rect x="52" y="300" width="2" height="2" fill="#8d867c"/><rect x="44" y="302" width="2" height="2" fill="#8d867c"/><rect x="52" y="302" width="2" height="2" fill="#8d867c"/><rect x="44" y="304" width="10" height="2" fill="#8d867c"/><rect x="44" y="306" width="2" height="2" fill="#8d867c"/><rect x="52" y="306" width="2" height="2" fill="#8d867c"/><rect x="44" y="308" width="2" height="2" fill="#8d867c"/><rect x="52" y="308" width="2" height="2" fill="#8d867c"/><rect x="44" y="310" width="2" height="2" fill="#8d867c"/><rect x="52" y="310" width="2" height="2" fill="#8d867c"/><rect x="58" y="298" width="6" height="2" fill="#8d867c"/><rect x="56" y="300" width="2" height="2" fill="#8d867c"/><rect x="64" y="300" width="2" height="2" fill="#8d867c"/><rect x="56" y="302" width="2" height="2" fill="#8d867c"/><rect x="56" y="304" width="2" height="2" fill="#8d867c"/><rect x="56" y="306" width="2" height="2" fill="#8d867c"/><rect x="56" y="308" width="2" height="2" fill="#8d867c"/><rect x="64" y="308" width="2" height="2" fill="#8d867c"/><rect x="58" y="310" width="6" height="2" fill="#8d867c"/><rect x="68" y="298" width="10" height="2" fill="#8d867c"/><rect x="72" y="300" width="2" height="2" fill="#8d867c"/><rect x="72" y="302" width="2" height="2" fill="#8d867c"/><rect x="72" y="304" width="2" height="2" fill="#8d867c"/><rect x="72" y="306" width="2" height="2" fill="#8d867c"/><rect x="72" y="308" width="2" height="2" fill="#8d867c"/><rect x="72" y="310" width="2" height="2" fill="#8d867c"/><rect x="96" y="300" width="2" height="2" fill="#8d867c"/><rect x="96" y="302" width="2" height="2" fill="#8d867c"/><rect x="92" y="304" width="10" height="2" fill="#8d867c"/><rect x="96" y="306" width="2" height="2" fill="#8d867c"/><rect x="96" y="308" width="2" height="2" fill="#8d867c"/><rect x="116" y="298" width="2" height="2" fill="#8d867c"/><rect x="124" y="298" width="2" height="2" fill="#8d867c"/><rect x="116" y="300" width="4" height="2" fill="#8d867c"/><rect x="124" y="300" width="2" height="2" fill="#8d867c"/><rect x="116" y="302" width="2" height="2" fill="#8d867c"/><rect x="120" y="302" width="2" height="2" fill="#8d867c"/><rect x="124" y="302" width="2" height="2" fill="#8d867c"/><rect x="116" y="304" width="2" height="2" fill="#8d867c"/><rect x="122" y="304" width="4" height="2" fill="#8d867c"/><rect x="116" y="306" width="2" height="2" fill="#8d867c"/><rect x="124" y="306" width="2" height="2" fill="#8d867c"/><rect x="116" y="308" width="2" height="2" fill="#8d867c"/><rect x="124" y="308" width="2" height="2" fill="#8d867c"/><rect x="116" y="310" width="2" height="2" fill="#8d867c"/><rect x="124" y="310" width="2" height="2" fill="#8d867c"/><rect x="130" y="298" width="6" height="2" fill="#8d867c"/><rect x="128" y="300" width="2" height="2" fill="#8d867c"/><rect x="136" y="300" width="2" height="2" fill="#8d867c"/><rect x="128" y="302" width="2" height="2" fill="#8d867c"/><rect x="136" y="302" width="2" height="2" fill="#8d867c"/><rect x="128" y="304" width="2" height="2" fill="#8d867c"/><rect x="136" y="304" width="2" height="2" fill="#8d867c"/><rect x="128" y="306" width="2" height="2" fill="#8d867c"/><rect x="136" y="306" width="2" height="2" fill="#8d867c"/><rect x="128" y="308" width="2" height="2" fill="#8d867c"/><rect x="136" y="308" width="2" height="2" fill="#8d867c"/><rect x="130" y="310" width="6" height="2" fill="#8d867c"/><rect x="140" y="298" width="8" height="2" fill="#8d867c"/><rect x="140" y="300" width="2" height="2" fill="#8d867c"/><rect x="148" y="300" width="2" height="2" fill="#8d867c"/><rect x="140" y="302" width="2" height="2" fill="#8d867c"/><rect x="148" y="302" width="2" height="2" fill="#8d867c"/><rect x="140" y="304" width="2" height="2" fill="#8d867c"/><rect x="148" y="304" width="2" height="2" fill="#8d867c"/><rect x="140" y="306" width="2" height="2" fill="#8d867c"/><rect x="148" y="306" width="2" height="2" fill="#8d867c"/><rect x="140" y="308" width="2" height="2" fill="#8d867c"/><rect x="148" y="308" width="2" height="2" fill="#8d867c"/><rect x="140" y="310" width="8" height="2" fill="#8d867c"/><rect x="152" y="298" width="10" height="2" fill="#8d867c"/><rect x="152" y="300" width="2" height="2" fill="#8d867c"/><rect x="152" y="302" width="2" height="2" fill="#8d867c"/><rect x="152" y="304" width="8" height="2" fill="#8d867c"/><rect x="152" y="306" width="2" height="2" fill="#8d867c"/><rect x="152" y="308" width="2" height="2" fill="#8d867c"/><rect x="152" y="310" width="10" height="2" fill="#8d867c"/>
  </g>
</svg>
