<svg xmlns="http://www.w3.org/2000/svg" viewBox="0 0 240 336" width="240" height="336"
     shape-rendering="crispEdges" role="img"
     aria-label="GUILDA DA CORRUPÇÃO — Deckbuilder. Heróis morrem para sempre. A guilda vai cair — a questão é quão longe você chega.">
  <title>GUILDA DA CORRUPÇÃO</title>
  <defs>
    <clipPath id="corte"><path d="M8,0 H232 V4 H236 V8 H240 V328 H236 V332 H232 V336 H8 V332 H4 V328 H0 V8 H4 V4 H8 Z"/></clipPath>
    <pattern id="tramado" width="4" height="4" patternUnits="userSpaceOnUse">
      <rect width="2" height="2" fill="#e8a83e" fill-opacity="0.07"/>
      <rect x="2" y="2" width="2" height="2" fill="#e8a83e" fill-opacity="0.07"/>
    </pattern>
    <style>
      .m { font-family: ui-monospace, "DejaVu Sans Mono", Consolas, monospace; }
    </style>
  </defs>

  <g clip-path="url(#corte)">
    <rect width="240" height="336" fill="#1a1206"/>
    <path d="M8,0 H232 V4 H236 V8 H240 V328 H236 V332 H232 V336 H8 V332 H4 V328 H0 V8 H4 V4 H8 Z" fill="none" stroke="#e8a83e" stroke-width="8"/>
    <rect x="8" y="8" width="224" height="320" fill="none"
          stroke="#6b4a12" stroke-width="4"/>

    <!-- barra de cabeçalho -->
    <rect x="8" y="8" width="224" height="28" fill="#6b4a12"/>
    <rect x="16" y="16" width="6" height="2" fill="#e8a83e"/><rect x="14" y="18" width="2" height="2" fill="#e8a83e"/><rect x="22" y="18" width="2" height="2" fill="#e8a83e"/><rect x="22" y="20" width="2" height="2" fill="#e8a83e"/><rect x="20" y="22" width="2" height="2" fill="#e8a83e"/><rect x="18" y="24" width="2" height="2" fill="#e8a83e"/><rect x="16" y="26" width="2" height="2" fill="#e8a83e"/><rect x="14" y="28" width="10" height="2" fill="#e8a83e"/><rect x="28" y="16" width="6" height="2" fill="#e8a83e"/><rect x="26" y="18" width="2" height="2" fill="#e8a83e"/><rect x="34" y="18" width="2" height="2" fill="#e8a83e"/><rect x="26" y="20" width="2" height="2" fill="#e8a83e"/><rect x="32" y="20" width="4" height="2" fill="#e8a83e"/><rect x="26" y="22" width="2" height="2" fill="#e8a83e"/><rect x="30" y="22" width="2" height="2" fill="#e8a83e"/><rect x="34" y="22" width="2" height="2" fill="#e8a83e"/><rect x="26" y="24" width="4" height="2" fill="#e8a83e"/><rect x="34" y="24" width="2" height="2" fill="#e8a83e"/><rect x="26" y="26" width="2" height="2" fill="#e8a83e"/><rect x="34" y="26" width="2" height="2" fill="#e8a83e"/><rect x="28" y="28" width="6" height="2" fill="#e8a83e"/><rect x="40" y="16" width="6" height="2" fill="#e8a83e"/><rect x="38" y="18" width="2" height="2" fill="#e8a83e"/><rect x="46" y="18" width="2" height="2" fill="#e8a83e"/><rect x="46" y="20" width="2" height="2" fill="#e8a83e"/><rect x="44" y="22" width="2" height="2" fill="#e8a83e"/><rect x="42" y="24" width="2" height="2" fill="#e8a83e"/><rect x="40" y="26" width="2" height="2" fill="#e8a83e"/><rect x="38" y="28" width="10" height="2" fill="#e8a83e"/><rect x="54" y="16" width="4" height="2" fill="#e8a83e"/><rect x="52" y="18" width="2" height="2" fill="#e8a83e"/><rect x="50" y="20" width="2" height="2" fill="#e8a83e"/><rect x="50" y="22" width="8" height="2" fill="#e8a83e"/><rect x="50" y="24" width="2" height="2" fill="#e8a83e"/><rect x="58" y="24" width="2" height="2" fill="#e8a83e"/><rect x="50" y="26" width="2" height="2" fill="#e8a83e"/><rect x="58" y="26" width="2" height="2" fill="#e8a83e"/><rect x="52" y="28" width="6" height="2" fill="#e8a83e"/>
    <rect x="146" y="16" width="10" height="2" fill="#f0ece4"/><rect x="146" y="18" width="2" height="2" fill="#f0ece4"/><rect x="146" y="20" width="2" height="2" fill="#f0ece4"/><rect x="146" y="22" width="8" height="2" fill="#f0ece4"/><rect x="146" y="24" width="2" height="2" fill="#f0ece4"/><rect x="146" y="26" width="2" height="2" fill="#f0ece4"/><rect x="146" y="28" width="10" height="2" fill="#f0ece4"/><rect x="158" y="16" width="2" height="2" fill="#f0ece4"/><rect x="166" y="16" width="2" height="2" fill="#f0ece4"/><rect x="158" y="18" width="4" height="2" fill="#f0ece4"/><rect x="164" y="18" width="4" height="2" fill="#f0ece4"/><rect x="158" y="20" width="2" height="2" fill="#f0ece4"/><rect x="162" y="20" width="2" height="2" fill="#f0ece4"/><rect x="166" y="20" width="2" height="2" fill="#f0ece4"/><rect x="158" y="22" width="2" height="2" fill="#f0ece4"/><rect x="162" y="22" width="2" height="2" fill="#f0ece4"/><rect x="166" y="22" width="2" height="2" fill="#f0ece4"/><rect x="158" y="24" width="2" height="2" fill="#f0ece4"/><rect x="166" y="24" width="2" height="2" fill="#f0ece4"/><rect x="158" y="26" width="2" height="2" fill="#f0ece4"/><rect x="166" y="26" width="2" height="2" fill="#f0ece4"/><rect x="158" y="28" width="2" height="2" fill="#f0ece4"/><rect x="166" y="28" width="2" height="2" fill="#f0ece4"/><rect x="184" y="16" width="6" height="2" fill="#f0ece4"/><rect x="182" y="18" width="2" height="2" fill="#f0ece4"/><rect x="190" y="18" width="2" height="2" fill="#f0ece4"/><rect x="182" y="20" width="2" height="2" fill="#f0ece4"/><rect x="190" y="20" width="2" height="2" fill="#f0ece4"/><rect x="182" y="22" width="2" height="2" fill="#f0ece4"/><rect x="190" y="22" width="2" height="2" fill="#f0ece4"/><rect x="182" y="24" width="2" height="2" fill="#f0ece4"/><rect x="190" y="24" width="2" height="2" fill="#f0ece4"/><rect x="182" y="26" width="2" height="2" fill="#f0ece4"/><rect x="190" y="26" width="2" height="2" fill="#f0ece4"/><rect x="184" y="28" width="6" height="2" fill="#f0ece4"/><rect x="194" y="16" width="8" height="2" fill="#f0ece4"/><rect x="194" y="18" width="2" height="2" fill="#f0ece4"/><rect x="202" y="18" width="2" height="2" fill="#f0ece4"/><rect x="194" y="20" width="2" height="2" fill="#f0ece4"/><rect x="202" y="20" width="2" height="2" fill="#f0ece4"/><rect x="194" y="22" width="8" height="2" fill="#f0ece4"/><rect x="194" y="24" width="2" height="2" fill="#f0ece4"/><rect x="202" y="24" width="2" height="2" fill="#f0ece4"/><rect x="194" y="26" width="2" height="2" fill="#f0ece4"/><rect x="202" y="26" width="2" height="2" fill="#f0ece4"/><rect x="194" y="28" width="8" height="2" fill="#f0ece4"/><rect x="206" y="16" width="8" height="2" fill="#f0ece4"/><rect x="206" y="18" width="2" height="2" fill="#f0ece4"/><rect x="214" y="18" width="2" height="2" fill="#f0ece4"/><rect x="206" y="20" width="2" height="2" fill="#f0ece4"/><rect x="214" y="20" width="2" height="2" fill="#f0ece4"/><rect x="206" y="22" width="8" height="2" fill="#f0ece4"/><rect x="206" y="24" width="2" height="2" fill="#f0ece4"/><rect x="210" y="24" width="2" height="2" fill="#f0ece4"/><rect x="206" y="26" width="2" height="2" fill="#f0ece4"/><rect x="212" y="26" width="2" height="2" fill="#f0ece4"/><rect x="206" y="28" width="2" height="2" fill="#f0ece4"/><rect x="214" y="28" width="2" height="2" fill="#f0ece4"/><rect x="220" y="16" width="6" height="2" fill="#f0ece4"/><rect x="218" y="18" width="2" height="2" fill="#f0ece4"/><rect x="226" y="18" width="2" height="2" fill="#f0ece4"/><rect x="218" y="20" width="2" height="2" fill="#f0ece4"/><rect x="226" y="20" width="2" height="2" fill="#f0ece4"/><rect x="218" y="22" width="10" height="2" fill="#f0ece4"/><rect x="218" y="24" width="2" height="2" fill="#f0ece4"/><rect x="226" y="24" width="2" height="2" fill="#f0ece4"/><rect x="218" y="26" width="2" height="2" fill="#f0ece4"/><rect x="226" y="26" width="2" height="2" fill="#f0ece4"/><rect x="218" y="28" width="2" height="2" fill="#f0ece4"/><rect x="226" y="28" width="2" height="2" fill="#f0ece4"/>

    <g><rect x="43" y="50" width="9" height="3" fill="#f0ece4"/><rect x="40" y="53" width="3" height="3" fill="#f0ece4"/><rect x="52" y="53" width="3" height="3" fill="#f0ece4"/><rect x="40" y="56" width="3" height="3" fill="#f0ece4"/><rect x="40" y="59" width="3" height="3" fill="#f0ece4"/><rect x="46" y="59" width="9" height="3" fill="#f0ece4"/><rect x="40" y="62" width="3" height="3" fill="#f0ece4"/><rect x="52" y="62" width="3" height="3" fill="#f0ece4"/><rect x="40" y="65" width="3" height="3" fill="#f0ece4"/><rect x="52" y="65" width="3" height="3" fill="#f0ece4"/><rect x="43" y="68" width="12" height="3" fill="#f0ece4"/><rect x="58" y="50" width="3" height="3" fill="#f0ece4"/><rect x="70" y="50" width="3" height="3" fill="#f0ece4"/><rect x="58" y="53" width="3" height="3" fill="#f0ece4"/><rect x="70" y="53" width="3" height="3" fill="#f0ece4"/><rect x="58" y="56" width="3" height="3" fill="#f0ece4"/><rect x="70" y="56" width="3" height="3" fill="#f0ece4"/><rect x="58" y="59" width="3" height="3" fill="#f0ece4"/><rect x="70" y="59" width="3" height="3" fill="#f0ece4"/><rect x="58" y="62" width="3" height="3" fill="#f0ece4"/><rect x="70" y="62" width="3" height="3" fill="#f0ece4"/><rect x="58" y="65" width="3" height="3" fill="#f0ece4"/><rect x="70" y="65" width="3" height="3" fill="#f0ece4"/><rect x="61" y="68" width="9" height="3" fill="#f0ece4"/><rect x="76" y="50" width="15" height="3" fill="#f0ece4"/><rect x="82" y="53" width="3" height="3" fill="#f0ece4"/><rect x="82" y="56" width="3" height="3" fill="#f0ece4"/><rect x="82" y="59" width="3" height="3" fill="#f0ece4"/><rect x="82" y="62" width="3" height="3" fill="#f0ece4"/><rect x="82" y="65" width="3" height="3" fill="#f0ece4"/><rect x="76" y="68" width="15" height="3" fill="#f0ece4"/><rect x="94" y="50" width="3" height="3" fill="#f0ece4"/><rect x="94" y="53" width="3" height="3" fill="#f0ece4"/><rect x="94" y="56" width="3" height="3" fill="#f0ece4"/><rect x="94" y="59" width="3" height="3" fill="#f0ece4"/><rect x="94" y="62" width="3" height="3" fill="#f0ece4"/><rect x="94" y="65" width="3" height="3" fill="#f0ece4"/><rect x="94" y="68" width="15" height="3" fill="#f0ece4"/><rect x="112" y="50" width="12" height="3" fill="#f0ece4"/><rect x="112" y="53" width="3" height="3" fill="#f0ece4"/><rect x="124" y="53" width="3" height="3" fill="#f0ece4"/><rect x="112" y="56" width="3" height="3" fill="#f0ece4"/><rect x="124" y="56" width="3" height="3" fill="#f0ece4"/><rect x="112" y="59" width="3" height="3" fill="#f0ece4"/><rect x="124" y="59" width="3" height="3" fill="#f0ece4"/><rect x="112" y="62" width="3" height="3" fill="#f0ece4"/><rect x="124" y="62" width="3" height="3" fill="#f0ece4"/><rect x="112" y="65" width="3" height="3" fill="#f0ece4"/><rect x="124" y="65" width="3" height="3" fill="#f0ece4"/><rect x="112" y="68" width="12" height="3" fill="#f0ece4"/><rect x="133" y="50" width="9" height="3" fill="#f0ece4"/><rect x="130" y="53" width="3" height="3" fill="#f0ece4"/><rect x="142" y="53" width="3" height="3" fill="#f0ece4"/><rect x="130" y="56" width="3" height="3" fill="#f0ece4"/><rect x="142" y="56" width="3" height="3" fill="#f0ece4"/><rect x="130" y="59" width="15" height="3" fill="#f0ece4"/><rect x="130" y="62" width="3" height="3" fill="#f0ece4"/><rect x="142" y="62" width="3" height="3" fill="#f0ece4"/><rect x="130" y="65" width="3" height="3" fill="#f0ece4"/><rect x="142" y="65" width="3" height="3" fill="#f0ece4"/><rect x="130" y="68" width="3" height="3" fill="#f0ece4"/><rect x="142" y="68" width="3" height="3" fill="#f0ece4"/><rect x="166" y="50" width="12" height="3" fill="#f0ece4"/><rect x="166" y="53" width="3" height="3" fill="#f0ece4"/><rect x="178" y="53" width="3" height="3" fill="#f0ece4"/><rect x="166" y="56" width="3" height="3" fill="#f0ece4"/><rect x="178" y="56" width="3" height="3" fill="#f0ece4"/><rect x="166" y="59" width="3" height="3" fill="#f0ece4"/><rect x="178" y="59" width="3" height="3" fill="#f0ece4"/><rect x="166" y="62" width="3" height="3" fill="#f0ece4"/><rect x="178" y="62" width="3" height="3" fill="#f0ece4"/><rect x="166" y="65" width="3" height="3" fill="#f0ece4"/><rect x="178" y="65" width="3" height="3" fill="#f0ece4"/><rect x="166" y="68" width="12" height="3" fill="#f0ece4"/><rect x="187" y="50" width="9" height="3" fill="#f0ece4"/><rect x="184" y="53" width="3" height="3" fill="#f0ece4"/><rect x="196" y="53" width="3" height="3" fill="#f0ece4"/><rect x="184" y="56" width="3" height="3" fill="#f0ece4"/><rect x="196" y="56" width="3" height="3" fill="#f0ece4"/><rect x="184" y="59" width="15" height="3" fill="#f0ece4"/><rect x="184" y="62" width="3" height="3" fill="#f0ece4"/><rect x="196" y="62" width="3" height="3" fill="#f0ece4"/><rect x="184" y="65" width="3" height="3" fill="#f0ece4"/><rect x="196" y="65" width="3" height="3" fill="#f0ece4"/><rect x="184" y="68" width="3" height="3" fill="#f0ece4"/><rect x="196" y="68" width="3" height="3" fill="#f0ece4"/><rect x="43" y="90" width="9" height="3" fill="#f0ece4"/><rect x="40" y="93" width="3" height="3" fill="#f0ece4"/><rect x="52" y="93" width="3" height="3" fill="#f0ece4"/><rect x="40" y="96" width="3" height="3" fill="#f0ece4"/><rect x="40" y="99" width="3" height="3" fill="#f0ece4"/><rect x="40" y="102" width="3" height="3" fill="#f0ece4"/><rect x="40" y="105" width="3" height="3" fill="#f0ece4"/><rect x="52" y="105" width="3" height="3" fill="#f0ece4"/><rect x="43" y="108" width="9" height="3" fill="#f0ece4"/><rect x="61" y="90" width="9" height="3" fill="#f0ece4"/><rect x="58" y="93" width="3" height="3" fill="#f0ece4"/><rect x="70" y="93" width="3" height="3" fill="#f0ece4"/><rect x="58" y="96" width="3" height="3" fill="#f0ece4"/><rect x="70" y="96" width="3" height="3" fill="#f0ece4"/><rect x="58" y="99" width="3" height="3" fill="#f0ece4"/><rect x="70" y="99" width="3" height="3" fill="#f0ece4"/><rect x="58" y="102" width="3" height="3" fill="#f0ece4"/><rect x="70" y="102" width="3" height="3" fill="#f0ece4"/><rect x="58" y="105" width="3" height="3" fill="#f0ece4"/><rect x="70" y="105" width="3" height="3" fill="#f0ece4"/><rect x="61" y="108" width="9" height="3" fill="#f0ece4"/><rect x="76" y="90" width="12" height="3" fill="#f0ece4"/><rect x="76" y="93" width="3" height="3" fill="#f0ece4"/><rect x="88" y="93" width="3" height="3" fill="#f0ece4"/><rect x="76" y="96" width="3" height="3" fill="#f0ece4"/><rect x="88" y="96" width="3" height="3" fill="#f0ece4"/><rect x="76" y="99" width="12" height="3" fill="#f0ece4"/><rect x="76" y="102" width="3" height="3" fill="#f0ece4"/><rect x="82" y="102" width="3" height="3" fill="#f0ece4"/><rect x="76" y="105" width="3" height="3" fill="#f0ece4"/><rect x="85" y="105" width="3" height="3" fill="#f0ece4"/><rect x="76" y="108" width="3" height="3" fill="#f0ece4"/><rect x="88" y="108" width="3" height="3" fill="#f0ece4"/><rect x="94" y="90" width="12" height="3" fill="#f0ece4"/><rect x="94" y="93" width="3" height="3" fill="#f0ece4"/><rect x="106" y="93" width="3" height="3" fill="#f0ece4"/><rect x="94" y="96" width="3" height="3" fill="#f0ece4"/><rect x="106" y="96" width="3" height="3" fill="#f0ece4"/><rect x="94" y="99" width="12" height="3" fill="#f0ece4"/><rect x="94" y="102" width="3" height="3" fill="#f0ece4"/><rect x="100" y="102" width="3" height="3" fill="#f0ece4"/><rect x="94" y="105" width="3" height="3" fill="#f0ece4"/><rect x="103" y="105" width="3" height="3" fill="#f0ece4"/><rect x="94" y="108" width="3" height="3" fill="#f0ece4"/><rect x="106" y="108" width="3" height="3" fill="#f0ece4"/><rect x="112" y="90" width="3" height="3" fill="#f0ece4"/><rect x="124" y="90" width="3" height="3" fill="#f0ece4"/><rect x="112" y="93" width="3" height="3" fill="#f0ece4"/><rect x="124" y="93" width="3" height="3" fill="#f0ece4"/><rect x="112" y="96" width="3" height="3" fill="#f0ece4"/><rect x="124" y="96" width="3" height="3" fill="#f0ece4"/><rect x="112" y="99" width="3" height="3" fill="#f0ece4"/><rect x="124" y="99" width="3" height="3" fill="#f0ece4"/><rect x="112" y="102" width="3" height="3" fill="#f0ece4"/><rect x="124" y="102" width="3" height="3" fill="#f0ece4"/><rect x="112" y="105" width="3" height="3" fill="#f0ece4"/><rect x="124" y="105" width="3" height="3" fill="#f0ece4"/><rect x="115" y="108" width="9" height="3" fill="#f0ece4"/><rect x="130" y="90" width="12" height="3" fill="#f0ece4"/><rect x="130" y="93" width="3" height="3" fill="#f0ece4"/><rect x="142" y="93" width="3" height="3" fill="#f0ece4"/><rect x="130" y="96" width="3" height="3" fill="#f0ece4"/><rect x="142" y="96" width="3" height="3" fill="#f0ece4"/><rect x="130" y="99" width="12" height="3" fill="#f0ece4"/><rect x="130" y="102" width="3" height="3" fill="#f0ece4"/><rect x="130" y="105" width="3" height="3" fill="#f0ece4"/><rect x="130" y="108" width="3" height="3" fill="#f0ece4"/><rect x="151" y="90" width="9" height="3" fill="#f0ece4"/><rect x="148" y="93" width="3" height="3" fill="#f0ece4"/><rect x="160" y="93" width="3" height="3" fill="#f0ece4"/><rect x="148" y="96" width="3" height="3" fill="#f0ece4"/><rect x="148" y="99" width="3" height="3" fill="#f0ece4"/><rect x="148" y="102" width="3" height="3" fill="#f0ece4"/><rect x="148" y="105" width="3" height="3" fill="#f0ece4"/><rect x="160" y="105" width="3" height="3" fill="#f0ece4"/><rect x="151" y="108" width="9" height="3" fill="#f0ece4"/><rect x="154" y="111" width="3" height="3" fill="#f0ece4"/><rect x="151" y="114" width="6" height="3" fill="#f0ece4"/><rect x="172" y="84" width="6" height="3" fill="#f0ece4"/><rect x="169" y="87" width="6" height="3" fill="#f0ece4"/><rect x="169" y="90" width="9" height="3" fill="#f0ece4"/><rect x="166" y="93" width="3" height="3" fill="#f0ece4"/><rect x="178" y="93" width="3" height="3" fill="#f0ece4"/><rect x="166" y="96" width="3" height="3" fill="#f0ece4"/><rect x="178" y="96" width="3" height="3" fill="#f0ece4"/><rect x="166" y="99" width="15" height="3" fill="#f0ece4"/><rect x="166" y="102" width="3" height="3" fill="#f0ece4"/><rect x="178" y="102" width="3" height="3" fill="#f0ece4"/><rect x="166" y="105" width="3" height="3" fill="#f0ece4"/><rect x="178" y="105" width="3" height="3" fill="#f0ece4"/><rect x="166" y="108" width="3" height="3" fill="#f0ece4"/><rect x="178" y="108" width="3" height="3" fill="#f0ece4"/><rect x="187" y="90" width="9" height="3" fill="#f0ece4"/><rect x="184" y="93" width="3" height="3" fill="#f0ece4"/><rect x="196" y="93" width="3" height="3" fill="#f0ece4"/><rect x="184" y="96" width="3" height="3" fill="#f0ece4"/><rect x="196" y="96" width="3" height="3" fill="#f0ece4"/><rect x="184" y="99" width="3" height="3" fill="#f0ece4"/><rect x="196" y="99" width="3" height="3" fill="#f0ece4"/><rect x="184" y="102" width="3" height="3" fill="#f0ece4"/><rect x="196" y="102" width="3" height="3" fill="#f0ece4"/><rect x="184" y="105" width="3" height="3" fill="#f0ece4"/><rect x="196" y="105" width="3" height="3" fill="#f0ece4"/><rect x="187" y="108" width="9" height="3" fill="#f0ece4"/></g>

    <!-- quadro de arte, tramado por dentro -->
    <rect x="20" y="126" width="200" height="72" fill="#6b4a12" fill-opacity="0.55"/>
    <rect x="20" y="126" width="200" height="72" fill="url(#tramado)"/>
    <rect x="20" y="126" width="200" height="72" fill="none" stroke="#e8a83e" stroke-width="2.0"/>
    <rect x="95" y="132" width="50" height="5" fill="#e8a83e"/><rect x="90" y="137" width="60" height="5" fill="#e8a83e"/><rect x="90" y="142" width="20" height="5" fill="#e8a83e"/><rect x="130" y="142" width="20" height="5" fill="#e8a83e"/><rect x="90" y="147" width="20" height="5" fill="#e8a83e"/><rect x="130" y="147" width="20" height="5" fill="#e8a83e"/><rect x="90" y="152" width="10" height="5" fill="#e8a83e"/><rect x="110" y="152" width="20" height="5" fill="#e8a83e"/><rect x="140" y="152" width="10" height="5" fill="#e8a83e"/><rect x="90" y="157" width="10" height="5" fill="#e8a83e"/><rect x="110" y="157" width="20" height="5" fill="#e8a83e"/><rect x="140" y="157" width="10" height="5" fill="#e8a83e"/><rect x="90" y="162" width="20" height="5" fill="#e8a83e"/><rect x="130" y="162" width="20" height="5" fill="#e8a83e"/><rect x="90" y="167" width="20" height="5" fill="#e8a83e"/><rect x="130" y="167" width="20" height="5" fill="#e8a83e"/><rect x="95" y="172" width="50" height="5" fill="#e8a83e"/><rect x="100" y="177" width="40" height="5" fill="#e8a83e"/><rect x="105" y="182" width="30" height="5" fill="#e8a83e"/><rect x="110" y="187" width="20" height="5" fill="#e8a83e"/>

    <rect x="20" y="210" width="8" height="2" fill="#e8a83e"/><rect x="20" y="212" width="2" height="2" fill="#e8a83e"/><rect x="28" y="212" width="2" height="2" fill="#e8a83e"/><rect x="20" y="214" width="2" height="2" fill="#e8a83e"/><rect x="28" y="214" width="2" height="2" fill="#e8a83e"/><rect x="20" y="216" width="2" height="2" fill="#e8a83e"/><rect x="28" y="216" width="2" height="2" fill="#e8a83e"/><rect x="20" y="218" width="2" height="2" fill="#e8a83e"/><rect x="28" y="218" width="2" height="2" fill="#e8a83e"/><rect x="20" y="220" width="2" height="2" fill="#e8a83e"/><rect x="28" y="220" width="2" height="2" fill="#e8a83e"/><rect x="20" y="222" width="8" height="2" fill="#e8a83e"/><rect x="32" y="210" width="10" height="2" fill="#e8a83e"/><rect x="32" y="212" width="2" height="2" fill="#e8a83e"/><rect x="32" y="214" width="2" height="2" fill="#e8a83e"/><rect x="32" y="216" width="8" height="2" fill="#e8a83e"/><rect x="32" y="218" width="2" height="2" fill="#e8a83e"/><rect x="32" y="220" width="2" height="2" fill="#e8a83e"/><rect x="32" y="222" width="10" height="2" fill="#e8a83e"/><rect x="46" y="210" width="6" height="2" fill="#e8a83e"/><rect x="44" y="212" width="2" height="2" fill="#e8a83e"/><rect x="52" y="212" width="2" height="2" fill="#e8a83e"/><rect x="44" y="214" width="2" height="2" fill="#e8a83e"/><rect x="44" y="216" width="2" height="2" fill="#e8a83e"/><rect x="44" y="218" width="2" height="2" fill="#e8a83e"/><rect x="44" y="220" width="2" height="2" fill="#e8a83e"/><rect x="52" y="220" width="2" height="2" fill="#e8a83e"/><rect x="46" y="222" width="6" height="2" fill="#e8a83e"/><rect x="56" y="210" width="2" height="2" fill="#e8a83e"/><rect x="64" y="210" width="2" height="2" fill="#e8a83e"/><rect x="56" y="212" width="2" height="2" fill="#e8a83e"/><rect x="62" y="212" width="2" height="2" fill="#e8a83e"/><rect x="56" y="214" width="2" height="2" fill="#e8a83e"/><rect x="60" y="214" width="2" height="2" fill="#e8a83e"/><rect x="56" y="216" width="4" height="2" fill="#e8a83e"/><rect x="56" y="218" width="2" height="2" fill="#e8a83e"/><rect x="60" y="218" width="2" height="2" fill="#e8a83e"/><rect x="56" y="220" width="2" height="2" fill="#e8a83e"/><rect x="62" y="220" width="2" height="2" fill="#e8a83e"/><rect x="56" y="222" width="2" height="2" fill="#e8a83e"/><rect x="64" y="222" width="2" height="2" fill="#e8a83e"/><rect x="68" y="210" width="8" height="2" fill="#e8a83e"/><rect x="68" y="212" width="2" height="2" fill="#e8a83e"/><rect x="76" y="212" width="2" height="2" fill="#e8a83e"/><rect x="68" y="214" width="2" height="2" fill="#e8a83e"/><rect x="76" y="214" width="2" height="2" fill="#e8a83e"/><rect x="68" y="216" width="8" height="2" fill="#e8a83e"/><rect x="68" y="218" width="2" height="2" fill="#e8a83e"/><rect x="76" y="218" width="2" height="2" fill="#e8a83e"/><rect x="68" y="220" width="2" height="2" fill="#e8a83e"/><rect x="76" y="220" width="2" height="2" fill="#e8a83e"/><rect x="68" y="222" width="8" height="2" fill="#e8a83e"/><rect x="80" y="210" width="2" height="2" fill="#e8a83e"/><rect x="88" y="210" width="2" height="2" fill="#e8a83e"/><rect x="80" y="212" width="2" height="2" fill="#e8a83e"/><rect x="88" y="212" width="2" height="2" fill="#e8a83e"/><rect x="80" y="214" width="2" height="2" fill="#e8a83e"/><rect x="88" y="214" width="2" height="2" fill="#e8a83e"/><rect x="80" y="216" width="2" height="2" fill="#e8a83e"/><rect x="88" y="216" width="2" height="2" fill="#e8a83e"/><rect x="80" y="218" width="2" height="2" fill="#e8a83e"/><rect x="88" y="218" width="2" height="2" fill="#e8a83e"/><rect x="80" y="220" width="2" height="2" fill="#e8a83e"/><rect x="88" y="220" width="2" height="2" fill="#e8a83e"/><rect x="82" y="222" width="6" height="2" fill="#e8a83e"/><rect x="92" y="210" width="10" height="2" fill="#e8a83e"/><rect x="96" y="212" width="2" height="2" fill="#e8a83e"/><rect x="96" y="214" width="2" height="2" fill="#e8a83e"/><rect x="96" y="216" width="2" height="2" fill="#e8a83e"/><rect x="96" y="218" width="2" height="2" fill="#e8a83e"/><rect x="96" y="220" width="2" height="2" fill="#e8a83e"/><rect x="92" y="222" width="10" height="2" fill="#e8a83e"/><rect x="104" y="210" width="2" height="2" fill="#e8a83e"/><rect x="104" y="212" width="2" height="2" fill="#e8a83e"/><rect x="104" y="214" width="2" height="2" fill="#e8a83e"/><rect x="104" y="216" width="2" height="2" fill="#e8a83e"/><rect x="104" y="218" width="2" height="2" fill="#e8a83e"/><rect x="104" y="220" width="2" height="2" fill="#e8a83e"/><rect x="104" y="222" width="10" height="2" fill="#e8a83e"/><rect x="116" y="210" width="8" height="2" fill="#e8a83e"/><rect x="116" y="212" width="2" height="2" fill="#e8a83e"/><rect x="124" y="212" width="2" height="2" fill="#e8a83e"/><rect x="116" y="214" width="2" height="2" fill="#e8a83e"/><rect x="124" y="214" width="2" height="2" fill="#e8a83e"/><rect x="116" y="216" width="2" height="2" fill="#e8a83e"/><rect x="124" y="216" width="2" height="2" fill="#e8a83e"/><rect x="116" y="218" width="2" height="2" fill="#e8a83e"/><rect x="124" y="218" width="2" height="2" fill="#e8a83e"/><rect x="116" y="220" width="2" height="2" fill="#e8a83e"/><rect x="124" y="220" width="2" height="2" fill="#e8a83e"/><rect x="116" y="222" width="8" height="2" fill="#e8a83e"/><rect x="128" y="210" width="10" height="2" fill="#e8a83e"/><rect x="128" y="212" width="2" height="2" fill="#e8a83e"/><rect x="128" y="214" width="2" height="2" fill="#e8a83e"/><rect x="128" y="216" width="8" height="2" fill="#e8a83e"/><rect x="128" y="218" width="2" height="2" fill="#e8a83e"/><rect x="128" y="220" width="2" height="2" fill="#e8a83e"/><rect x="128" y="222" width="10" height="2" fill="#e8a83e"/><rect x="140" y="210" width="8" height="2" fill="#e8a83e"/><rect x="140" y="212" width="2" height="2" fill="#e8a83e"/><rect x="148" y="212" width="2" height="2" fill="#e8a83e"/><rect x="140" y="214" width="2" height="2" fill="#e8a83e"/><rect x="148" y="214" width="2" height="2" fill="#e8a83e"/><rect x="140" y="216" width="8" height="2" fill="#e8a83e"/><rect x="140" y="218" width="2" height="2" fill="#e8a83e"/><rect x="144" y="218" width="2" height="2" fill="#e8a83e"/><rect x="140" y="220" width="2" height="2" fill="#e8a83e"/><rect x="146" y="220" width="2" height="2" fill="#e8a83e"/><rect x="140" y="222" width="2" height="2" fill="#e8a83e"/><rect x="148" y="222" width="2" height="2" fill="#e8a83e"/>

    <g><text x="20" y="248" fill="#8d867c" font-size="10.5" class="m">Heróis morrem para sempre.</text><text x="20" y="263" fill="#8d867c" font-size="10.5" class="m">A guilda vai cair — a questão</text><text x="20" y="278" fill="#8d867c" font-size="10.5" class="m">é quão longe você chega.</text></g>

    <rect x="20" y="288" width="200" height="2.0" fill="#6b4a12"/>
    <rect x="20" y="298" width="2" height="2" fill="#8d867c"/><rect x="28" y="298" width="2" height="2" fill="#8d867c"/><rect x="20" y="300" width="2" height="2" fill="#8d867c"/><rect x="28" y="300" width="2" height="2" fill="#8d867c"/><rect x="20" y="302" width="2" height="2" fill="#8d867c"/><rect x="28" y="302" width="2" height="2" fill="#8d867c"/><rect x="20" y="304" width="2" height="2" fill="#8d867c"/><rect x="28" y="304" width="2" height="2" fill="#8d867c"/><rect x="20" y="306" width="2" height="2" fill="#8d867c"/><rect x="28" y="306" width="2" height="2" fill="#8d867c"/><rect x="20" y="308" width="2" height="2" fill="#8d867c"/><rect x="28" y="308" width="2" height="2" fill="#8d867c"/><rect x="22" y="310" width="6" height="2" fill="#8d867c"/><rect x="32" y="298" width="2" height="2" fill="#8d867c"/><rect x="40" y="298" width="2" height="2" fill="#8d867c"/><rect x="32" y="300" width="4" height="2" fill="#8d867c"/><rect x="40" y="300" width="2" height="2" fill="#8d867c"/><rect x="32" y="302" width="2" height="2" fill="#8d867c"/><rect x="36" y="302" width="2" height="2" fill="#8d867c"/><rect x="40" y="302" width="2" height="2" fill="#8d867c"/><rect x="32" y="304" width="2" height="2" fill="#8d867c"/><rect x="38" y="304" width="4" height="2" fill="#8d867c"/><rect x="32" y="306" width="2" height="2" fill="#8d867c"/><rect x="40" y="306" width="2" height="2" fill="#8d867c"/><rect x="32" y="308" width="2" height="2" fill="#8d867c"/><rect x="40" y="308" width="2" height="2" fill="#8d867c"/><rect x="32" y="310" width="2" height="2" fill="#8d867c"/><rect x="40" y="310" width="2" height="2" fill="#8d867c"/><rect x="44" y="298" width="10" height="2" fill="#8d867c"/><rect x="48" y="300" width="2" height="2" fill="#8d867c"/><rect x="48" y="302" width="2" height="2" fill="#8d867c"/><rect x="48" y="304" width="2" height="2" fill="#8d867c"/><rect x="48" y="306" width="2" height="2" fill="#8d867c"/><rect x="48" y="308" width="2" height="2" fill="#8d867c"/><rect x="44" y="310" width="10" height="2" fill="#8d867c"/><rect x="56" y="298" width="10" height="2" fill="#8d867c"/><rect x="60" y="300" width="2" height="2" fill="#8d867c"/><rect x="60" y="302" width="2" height="2" fill="#8d867c"/><rect x="60" y="304" width="2" height="2" fill="#8d867c"/><rect x="60" y="306" width="2" height="2" fill="#8d867c"/><rect x="60" y="308" width="2" height="2" fill="#8d867c"/><rect x="60" y="310" width="2" height="2" fill="#8d867c"/><rect x="68" y="298" width="2" height="2" fill="#8d867c"/><rect x="76" y="298" width="2" height="2" fill="#8d867c"/><rect x="68" y="300" width="2" height="2" fill="#8d867c"/><rect x="76" y="300" width="2" height="2" fill="#8d867c"/><rect x="70" y="302" width="2" height="2" fill="#8d867c"/><rect x="74" y="302" width="2" height="2" fill="#8d867c"/><rect x="72" y="304" width="2" height="2" fill="#8d867c"/><rect x="72" y="306" width="2" height="2" fill="#8d867c"/><rect x="72" y="308" width="2" height="2" fill="#8d867c"/><rect x="72" y="310" width="2" height="2" fill="#8d867c"/><rect x="96" y="300" width="2" height="2" fill="#8d867c"/><rect x="96" y="302" width="2" height="2" fill="#8d867c"/><rect x="92" y="304" width="10" height="2" fill="#8d867c"/><rect x="96" y="306" width="2" height="2" fill="#8d867c"/><rect x="96" y="308" width="2" height="2" fill="#8d867c"/><rect x="118" y="298" width="6" height="2" fill="#8d867c"/><rect x="116" y="300" width="2" height="2" fill="#8d867c"/><rect x="124" y="300" width="2" height="2" fill="#8d867c"/><rect x="116" y="302" width="2" height="2" fill="#8d867c"/><rect x="116" y="304" width="2" height="2" fill="#8d867c"/><rect x="116" y="306" width="2" height="2" fill="#8d867c"/><rect x="116" y="308" width="2" height="2" fill="#8d867c"/><rect x="124" y="308" width="2" height="2" fill="#8d867c"/><rect x="118" y="310" width="6" height="2" fill="#8d867c"/><rect x="130" y="298" width="2" height="2" fill="#8d867c"/><rect x="134" y="298" width="2" height="2" fill="#8d867c"/><rect x="128" y="300" width="10" height="2" fill="#8d867c"/><rect x="130" y="302" width="2" height="2" fill="#8d867c"/><rect x="134" y="302" width="2" height="2" fill="#8d867c"/><rect x="130" y="304" width="2" height="2" fill="#8d867c"/><rect x="134" y="304" width="2" height="2" fill="#8d867c"/><rect x="128" y="306" width="10" height="2" fill="#8d867c"/><rect x="130" y="308" width="2" height="2" fill="#8d867c"/><rect x="134" y="308" width="2" height="2" fill="#8d867c"/>
  </g>
</svg>
